<svg xmlns="http://www.w3.org/2000/svg" xml:space="preserve" viewBox="0 0 512 512"><path d="M454.608 111.204 280.557 6.804C272.992 2.268 264.504 0 256 0c-8.507 0-16.996 2.268-24.557 6.797L57.392 111.204c-5.346 3.203-9.916 7.37-13.555 12.192l207.902 124.707c2.622 1.575 5.896 1.575 8.518 0L468.16 123.396c-3.639-4.822-8.205-8.989-13.552-12.192zM177.16 131.738c-12.056 8.371-31.302 8.16-42.984-.49-11.684-8.65-11.382-22.463.678-30.842 12.056-8.386 31.304-8.16 42.992.482 11.679 8.651 11.374 22.456-.686 30.85zm199.143 2.388c-12.056 8.38-31.306 8.16-42.992-.49-11.68-8.65-11.378-22.462.685-30.841 12.053-8.38 31.302-8.168 42.985.482 11.683 8.651 11.378 22.455-.678 30.849zm-130.167 124.24L38.004 133.523c-2.457 5.802-3.794 12.116-3.794 18.62v208.084c0 16.773 8.801 32.311 23.182 40.946l174.051 104.392c5.828 3.496 12.203 5.629 18.714 6.435V265.464c-.001-2.908-1.526-5.606-4.021-7.098zM75.845 369.736c-12.052-6.571-21.829-21.671-21.829-33.728 0-12.056 9.777-16.502 21.829-9.931 12.056 6.57 21.826 21.671 21.826 33.728 0 12.056-9.769 16.501-21.826 9.931zm0-121.867c-12.052-6.578-21.829-21.678-21.829-33.728 0-12.056 9.777-16.501 21.829-9.931 12.056 6.571 21.826 21.671 21.826 33.728 0 12.048-9.769 16.502-21.826 9.931zm60.934 94.145c-12.056-6.571-21.826-21.671-21.826-33.728s9.769-16.502 21.826-9.931c12.056 6.571 21.829 21.671 21.829 33.728 0 12.048-9.773 16.502-21.829 9.931zm60.937 94.144c-12.056-6.571-21.83-21.671-21.83-33.727 0-12.049 9.773-16.495 21.83-9.924 12.056 6.57 21.826 21.67 21.826 33.72-.001 12.057-9.77 16.502-21.826 9.931zm0-121.866c-12.056-6.57-21.83-21.671-21.83-33.727 0-12.056 9.773-16.502 21.83-9.931 12.056 6.571 21.826 21.671 21.826 33.727-.001 12.056-9.77 16.502-21.826 9.931zm276.276-180.769L265.864 258.366c-2.494 1.492-4.02 4.19-4.02 7.098V512c6.506-.806 12.889-2.939 18.714-6.435l174.051-104.392c14.381-8.635 23.182-24.172 23.182-40.946V152.143c-.001-6.503-1.338-12.817-3.799-18.62zm-152.76 129.409c12.053-6.571 21.826-2.125 21.826 9.931 0 12.049-9.773 27.149-21.826 33.72-12.06 6.571-21.83 2.125-21.83-9.924 0-12.055 9.77-27.156 21.83-33.727zm0 185.803c-12.06 6.57-21.83 2.125-21.83-9.931s9.77-27.15 21.83-33.728c12.053-6.571 21.826-2.118 21.826 9.931 0 12.057-9.773 27.157-21.826 33.728zm1.304-71.072c-12.056 6.571-21.83 2.117-21.83-9.939 0-12.048 9.773-27.149 21.83-33.72 12.056-6.57 21.826-2.125 21.826 9.931s-9.77 27.15-21.826 33.728zm104.784 8.74c-12.056 6.571-21.826 2.125-21.826-9.931s9.769-27.156 21.826-33.72c12.056-6.578 21.829-2.133 21.829 9.924 0 12.056-9.773 27.157-21.829 33.727zm0-71.071c-12.056 6.563-21.826 2.125-21.826-9.931s9.769-27.157 21.826-33.728c12.056-6.571 21.829-2.125 21.829 9.931 0 12.049-9.773 27.157-21.829 33.728zm0-71.079c-12.056 6.57-21.826 2.125-21.826-9.924 0-12.056 9.769-27.157 21.826-33.728 12.056-6.571 21.829-2.125 21.829 9.931 0 12.05-9.773 27.15-21.829 33.721z" style="fill:#000"/></svg>